<?xml version="1.0" encoding="UTF-8" standalone="no"?>
<svg
   xmlns:dc="http://purl.org/dc/elements/1.1/"
   xmlns:cc="http://creativecommons.org/ns#"
   xmlns:rdf="http://www.w3.org/1999/02/22-rdf-syntax-ns#"
   xmlns:svg="http://www.w3.org/2000/svg"
   xmlns="http://www.w3.org/2000/svg"
   xmlns:sodipodi="http://sodipodi.sourceforge.net/DTD/sodipodi-0.dtd"
   xmlns:inkscape="http://www.inkscape.org/namespaces/inkscape"
   version="1.1"
   width="708.2px"
   height="109.2px"
   overflow="visible"
   viewBox="-354.1 -54.6 708.2 109.2"
   enable-background="new -354.1 -54.6 708.2 109.2"
   id="svg2"
   inkscape:version="0.48.5 r10040"
   sodipodi:docname="Logo_EN_-_Pokedex_3D.svg">
  <metadata
     id="metadata56">
    <rdf:RDF>
      <cc:Work
         rdf:about="">
        <dc:format>image/svg+xml</dc:format>
        <dc:type
           rdf:resource="http://purl.org/dc/dcmitype/StillImage" />
      </cc:Work>
    </rdf:RDF>
  </metadata>
  <sodipodi:namedview
     pagecolor="#ffffff"
     bordercolor="#666666"
     borderopacity="1"
     objecttolerance="10"
     gridtolerance="10"
     guidetolerance="10"
     inkscape:pageopacity="0"
     inkscape:pageshadow="2"
     inkscape:window-width="640"
     inkscape:window-height="480"
     id="namedview54"
     showgrid="false"
     inkscape:zoom="0.40384072"
     inkscape:cx="354.10001"
     inkscape:cy="54.599998"
     inkscape:window-x="0"
     inkscape:window-y="0"
     inkscape:window-maximized="0"
     inkscape:current-layer="svg2" />
  <defs
     id="defs4">
    <linearGradient
       id="Grad1"
       gradientUnits="userSpaceOnUse"
       gradientTransform="matrix(0.0 0.02923584 -0.041229248 0.0 371.6 17.2)"
       x1="-819.2"
       y1="0"
       x2="819.2"
       y2="0">
      <stop
         offset="0.0"
         stop-color="#FFFFFF"
         id="stop7" />
      <stop
         offset="1.0"
         stop-color="#9A9C91"
         id="stop9" />
    </linearGradient>
    <linearGradient
       id="Grad2"
       gradientUnits="userSpaceOnUse"
       gradientTransform="matrix(0.0 0.035614014 -0.041229248 0.0 372.6 -11.1)"
       x1="-819.2"
       y1="0"
       x2="819.2"
       y2="0">
      <stop
         offset="0.0"
         stop-color="#4A4C41"
         id="stop12" />
      <stop
         offset="1.0"
         stop-color="#000000"
         id="stop14" />
    </linearGradient>
    <linearGradient
       id="Grad3"
       gradientUnits="userSpaceOnUse"
       gradientTransform="matrix(0.0 0.028503418 -0.02859497 0.0 -161.45 3.9)"
       x1="-819.2"
       y1="0"
       x2="819.2"
       y2="0">
      <stop
         offset="0.37254903"
         stop-color="#D7D9D6"
         id="stop17" />
      <stop
         offset="1.0"
         stop-color="#696A62"
         id="stop19" />
    </linearGradient>
    <linearGradient
       id="Grad4"
       gradientUnits="userSpaceOnUse"
       gradientTransform="matrix(0.0 0.027038574 -0.027648926 0.0 -377.95 -14.55)"
       x1="-819.2"
       y1="0"
       x2="819.2"
       y2="0">
      <stop
         offset="0.37254903"
         stop-color="#CA2E13"
         id="stop22" />
      <stop
         offset="0.9882353"
         stop-color="#881F0A"
         id="stop24" />
    </linearGradient>
  </defs>
  <g
     id="g28">
    <g
       id="g30"
       transform="matrix(1.0 0.0 0.0 1.0 0.0 0.0)">
      <path
         d="M 252.3 23.05 L 252.3 -29.2 L 297.45 -29.2 L 313.85 -15.6 L 313.85 9.8 L 297.65 23.05 L 252.3 23.05 Z M 298.85 -16.5 L 267.5 -16.5 L 267.5 10.45 L 272.5 10.45 L 298.85 10.45 L 298.85 -11.85 L 298.85 -16.5 Z M 225.25 -29.2 L 241.3 -15.75 L 241.3 9.65 L 225.3 23.05 L 188.45 23.05 L 177.45 10.3 L 225.55 10.3 L 225.55 6.5 L 225.55 1.85 L 189.65 1.85 L 189.65 -7.8 L 225.55 -7.8 L 225.55 -12.05 L 225.55 -16.7 L 177.45 -16.7 L 188.85 -29.2 L 225.25 -29.2 Z"
         id="path32"
         stroke-linejoin="round"
         stroke-linecap="round"
         fill="url(#Grad1)" />
      <path
         d="M 252.3 -29.2 L 252.3 23.05 L 257.3 27.7 L 302.65 27.7 L 318.85 14.45 L 318.85 -10.95 L 313.85 -15.6 L 297.45 -29.2 L 252.3 -29.2 Z M 298.85 -11.85 L 298.85 10.45 L 272.5 10.45 L 272.5 -11.85 L 298.85 -11.85 Z M 315.95 37.05 L 176.95 37.05 L 144.95 -0.25 L 178.6 -37.6 L 314.25 -37.6 L 347.85 -0.15 L 315.95 37.05 Z M 241.3 -15.75 L 225.25 -29.2 L 188.85 -29.2 L 177.45 -16.7 L 182.45 -12.05 L 225.55 -12.05 L 225.55 -7.8 L 189.65 -7.8 L 189.65 1.85 L 194.65 6.5 L 225.55 6.5 L 225.55 10.3 L 177.45 10.3 L 188.45 23.05 L 193.5 27.95 L 229.85 27.95 L 246.3 14.3 L 246.3 -10.75 L 241.3 -15.75 Z"
         id="path34"
         stroke-linejoin="round"
         stroke-linecap="round"
         fill="url(#Grad2)" />
      <path
         d="M 313.85 -15.6 L 318.85 -10.95 L 318.85 14.45 L 313.85 9.8 L 313.85 -15.6 Z M 272.5 10.45 L 267.5 10.45 L 267.5 -16.5 L 272.5 -11.85 L 272.5 10.45 Z M 241.3 9.65 L 241.3 -15.75 L 246.3 -10.75 L 246.3 14.3 L 241.3 9.65 Z"
         id="path36"
         stroke-linejoin="round"
         stroke-linecap="round"
         fill="#76796E" />
      <path
         d="M 318.85 14.45 L 302.65 27.7 L 297.65 23.05 L 313.85 9.8 L 318.85 14.45 Z M 267.5 -16.5 L 298.85 -16.5 L 298.85 -11.85 L 272.5 -11.85 L 267.5 -16.5 Z M 320.35 43.05 L 179.9 43.05 L 176.1 38.8 L 316.75 38.8 L 320.35 43.05 Z M 177.45 -16.7 L 225.55 -16.7 L 225.55 -12.05 L 182.45 -12.05 L 177.45 -16.7 Z M 225.3 23.05 L 241.3 9.65 L 246.3 14.3 L 229.85 27.95 L 225.3 23.05 Z M -354.1 36.75 L -312.95 36.75 L -309.0 41.05 L -350.55 41.05 L -354.1 36.75 Z M -312.95 24.65 L -294.5 24.65 L -291.25 28.85 L -309.0 28.85 L -312.95 24.65 Z M -272.2 27.1 L -270.35 28.85 C -264.58334 34.183334 -256.96667 37.983334 -247.5 40.25 C -230.93333 43.149998 -216.71667 39.35 -204.85 28.85 L -202.8 26.95 L -202.8 34.4 C -211.1 41.433334 -222.0 45.05 -235.5 45.25 C -250.13335 44.75 -261.88336 39.283333 -270.75 28.85 L -272.2 27.1 Z M -247.5 40.25 L -247.45 40.25 Z M -202.8 36.65 L -11.6 36.65 L -8.0 41.0 L -199.1 41.0 L -202.8 36.65 Z M 17.5 36.65 L 97.15 36.65 L 100.6 41.0 L 23.05 41.0 L 17.5 36.65 Z M 107.9 36.65 L 161.7 36.65 L 165.5 41.0 L 111.8 41.0 L 107.9 36.65 Z"
         id="path38"
         stroke-linejoin="round"
         stroke-linecap="round"
         fill="#525449" />
      <path
         d="M 302.65 27.7 L 257.3 27.7 L 252.3 23.05 L 297.65 23.05 L 302.65 27.7 Z M 189.65 1.85 L 225.55 1.85 L 225.55 6.5 L 194.65 6.5 L 189.65 1.85 Z M 188.45 23.05 L 225.3 23.05 L 229.85 27.95 L 193.5 27.95 L 188.45 23.05 Z"
         id="path40"
         stroke-linejoin="round"
         stroke-linecap="round"
         fill="#303026" />
      <path
         d="M 350.2 -0.15 L 354.1 4.0 L 320.35 43.05 L 316.75 38.8 L 350.2 -0.15 Z M 133.65 4.05 L 130.1 -0.1 L 162.75 -37.2 L 166.6 -32.85 L 133.65 4.05 Z M -67.7 -37.2 L -71.35 -37.2 L -71.35 -54.6 L -67.7 -50.65 L -67.7 -37.2 Z M -312.95 36.75 L -312.95 24.65 L -309.0 28.85 L -309.0 41.05 L -312.95 36.75 Z M -294.5 24.65 L -280.85 13.1 L -278.55 18.25 L -291.25 28.85 L -294.5 24.65 Z M -11.6 36.65 L 2.95 24.45 L 7.35 28.15 L -8.0 41.0 L -11.6 36.65 Z M 97.15 36.65 L 102.4 30.7 L 106.15 34.8 L 100.6 41.0 L 97.15 36.65 Z M 71.15 -4.1 L 65.05 4.35 L 61.7 -0.35 L 67.4 -8.35 L 71.15 -4.1 Z"
         id="path42"
         stroke-linejoin="round"
         stroke-linecap="round"
         fill="#999B90" />
      <path
         d="M 176.1 38.8 L 142.6 -0.25 L 177.8 -39.35 L 315.0 -39.35 L 350.2 -0.15 L 316.75 38.8 L 176.1 38.8 Z M 176.95 37.05 L 315.95 37.05 L 347.85 -0.15 L 314.25 -37.6 L 178.6 -37.6 L 144.95 -0.25 L 176.95 37.05 Z M 130.1 -0.1 L 133.65 4.05 L 161.7 36.65 L 107.9 36.65 L 106.15 34.8 L 102.4 30.7 L 97.15 36.65 L 17.5 36.65 L 7.35 28.15 L 2.95 24.45 L -11.6 36.65 L -202.8 36.65 L -202.8 34.4 L -202.8 26.95 L -204.85 28.85 C -216.71666 39.35 -230.91666 43.149998 -247.45 40.25 C -256.95 37.983334 -264.58334 34.183334 -270.35 28.85 L -272.2 27.1 C -274.7 24.466667 -276.81668 21.516666 -278.55 18.25 L -280.85 13.1 L -294.5 24.65 L -312.95 24.65 L -312.95 36.75 L -354.1 36.75 L -354.1 -37.35 L -294.75 -37.35 L -276.5 -22.25 C -268.43332 -33.65 -256.55 -40.016666 -240.85 -41.35 C -225.45 -42.116665 -212.76666 -37.483334 -202.8 -27.45 L -202.8 -37.25 L -119.8 -37.25 L -119.8 -46.85 L -71.35 -54.6 L -71.35 -37.2 L -67.7 -37.2 L -11.3 -37.2 L 3.05 -25.25 L 17.5 -37.2 L 97.3 -37.2 L 102.5 -31.5 L 107.65 -37.2 L 162.75 -37.2 L 130.1 -0.1 Z M -247.45 40.25 L -247.5 40.25 Z M 108.55 35.15 L 158.4 35.15 L 128.1 -0.1 L 159.45 -35.7 L 108.3 -35.7 L 102.5 -29.25 L 96.65 -35.7 L 18.05 -35.7 L 3.05 -23.3 L -11.85 -35.7 L -72.85 -35.7 L -72.85 -52.85 L -118.3 -45.55 L -118.3 -35.75 L -201.3 -35.75 L -201.3 -23.75 L -202.6 -25.1 C -212.43333 -35.733334 -225.13333 -40.65 -240.7 -39.85 C -256.2 -38.516666 -267.8667 -32.133335 -275.7 -20.7 L -276.2 -20.05 L -295.3 -35.85 L -352.6 -35.85 L -352.6 35.25 L -314.45 35.25 L -314.45 23.15 L -295.05 23.15 L -280.2 10.55 L -279.85 11.55 C -277.4167 18.55 -273.50003 24.316666 -268.1 28.85 C -262.63333 33.45 -255.65 36.766666 -247.15 38.8 C -231.75 41.466667 -218.43333 38.15 -207.2 28.85 L -202.6 24.6 L -201.3 23.35 L -201.3 35.15 L -12.15 35.15 L 2.95 22.5 L 18.05 35.15 L 96.45 35.15 L 102.35 28.45 L 108.55 35.15 Z M -247.15 38.8 L -247.2 38.75 Z M -240.7 -39.85 L -240.75 -39.85 Z M 65.05 4.35 L 67.45 7.65 L 74.5 -0.35 L 71.15 -4.1 L 67.4 -8.35 L 61.7 -0.35 L 65.05 4.35 Z M 59.85 -0.35 L 67.25 -10.75 L 76.5 -0.35 L 67.35 10.05 L 59.85 -0.35 Z"
         id="path44"
         stroke-linejoin="round"
         stroke-linecap="round"
         fill="#B6B8AD" />
      <path
         d="M 158.4 35.15 L 108.55 35.15 L 102.35 28.45 L 96.45 35.15 L 18.05 35.15 L 2.95 22.5 L -12.15 35.15 L -201.3 35.15 L -201.3 23.35 L -202.6 24.6 L -207.2 28.85 C -218.43333 38.15 -231.76666 41.45 -247.2 38.75 C -255.66666 36.75 -262.63333 33.45 -268.1 28.85 C -273.5 24.316666 -277.41666 18.55 -279.85 11.55 L -280.2 10.55 L -295.05 23.15 L -314.45 23.15 L -314.45 35.25 L -352.6 35.25 L -352.6 -35.85 L -295.3 -35.85 L -276.2 -20.05 L -275.7 -20.7 C -267.86667 -32.13333 -256.21667 -38.516663 -240.75 -39.85 C -225.15001 -40.649998 -212.43335 -35.73333 -202.6 -25.1 L -201.3 -23.75 L -201.3 -35.75 L -118.3 -35.75 L -118.3 -45.55 L -72.85 -52.85 L -72.85 -35.7 L -11.85 -35.7 L 3.05 -23.3 L 18.05 -35.7 L 96.65 -35.7 L 102.5 -29.25 L 108.3 -35.7 L 159.45 -35.7 L 128.1 -0.1 L 158.4 35.15 Z M -247.2 38.75 L -247.15 38.8 Z M -240.75 -39.85 L -240.7 -39.85 Z M 162.8 45.1 L 164.85 45.1 L 164.85 54.6 L 163.6 54.6 L 163.6 46.65 L 160.85 54.25 L 159.25 54.25 L 156.65 46.55 L 156.65 54.45 L 155.4 54.45 L 155.4 45.25 L 157.5 45.25 L 160.1 52.75 L 162.8 45.1 Z M 146.3 45.1 L 154.2 45.1 L 154.2 46.35 L 151.0 46.35 L 151.0 54.4 L 149.75 54.4 L 149.75 46.35 L 146.3 46.35 L 146.3 45.1 Z M 146.0 -29.7 L 111.55 -29.7 L 102.6 -19.75 L 93.4 -29.7 L 20.85 -29.7 L 3.1 -15.35 L -14.35 -29.7 L -79.6 -29.7 L -79.6 -45.55 L -111.9 -40.45 L -111.9 -29.7 L -130.15 -14.55 L -130.15 13.85 L -111.65 28.85 L -14.35 28.85 L 3.05 14.45 L 20.6 28.85 L 93.5 28.85 L 102.35 19.0 L 111.4 28.85 L 144.55 28.85 L 119.7 -0.35 L 146.0 -29.7 Z M 92.0 -25.25 L 102.55 -13.5 L 113.25 -25.25 L 136.3 -25.25 L 113.85 -0.45 L 135.45 24.6 L 113.35 24.6 L 102.35 12.7 L 91.55 24.6 L 68.55 24.6 L 90.55 -0.35 L 69.2 -25.25 L 92.0 -25.25 Z M 24.25 -12.65 L 53.55 -12.65 L 61.65 -23.75 L 22.45 -23.75 L 7.95 -11.5 L 7.95 10.8 L 22.65 23.1 L 61.6 23.1 L 53.75 11.7 L 24.25 11.7 L 24.25 4.35 L 47.35 4.35 L 47.35 -5.15 L 24.25 -5.15 L 24.25 -12.65 Z M 67.25 -10.75 L 59.85 -0.35 L 67.35 10.05 L 76.5 -0.35 L 67.25 -10.75 Z M 53.0 6.15 L 53.0 -6.7 L 56.5 -6.7 L 66.65 -20.95 L 85.35 -0.55 L 66.65 20.3 L 56.75 6.15 L 53.0 6.15 Z M 25.75 10.2 L 54.35 10.2 L 54.5 10.1 L 54.6 10.2 L 54.65 10.35 L 64.45 24.6 L 22.1 24.6 L 6.45 11.5 L 6.45 -12.2 L 21.9 -25.25 L 64.6 -25.25 L 54.3 -11.15 L 25.75 -11.15 L 25.75 -6.65 L 48.85 -6.65 L 48.85 5.85 L 25.75 5.85 L 25.75 10.2 Z M 54.6 10.2 L 54.65 10.2 Z M 71.9 23.1 L 90.9 23.1 L 102.35 10.5 L 114.0 23.1 L 132.15 23.1 L 111.85 -0.45 L 132.95 -23.75 L 113.9 -23.75 L 102.55 -11.25 L 91.35 -23.75 L 72.45 -23.75 L 92.55 -0.35 L 71.9 23.1 Z M -60.75 -25.25 L -15.6 -25.25 L -0.4 -12.5 L -0.4 11.8 L -15.6 24.6 L -60.75 24.6 L -60.75 -25.25 Z M -1.9 11.1 L -1.9 -11.8 L -16.15 -23.75 L -59.25 -23.75 L -59.25 23.1 L -16.15 23.1 L -1.9 11.1 Z M -43.4 10.1 L -17.6 10.1 L -17.6 -10.85 L -43.4 -10.85 L -43.4 10.1 Z M -21.8 5.9 L -39.05 5.9 L -39.05 -6.7 L -21.8 -6.7 L -21.8 5.9 Z M -44.9 -12.35 L -16.1 -12.35 L -16.1 11.6 L -44.9 11.6 L -44.9 -12.35 Z M -107.9 -12.65 L -78.6 -12.65 L -70.5 -23.75 L -109.7 -23.75 L -124.2 -11.5 L -124.2 10.8 L -109.5 23.1 L -70.55 23.1 L -78.4 11.7 L -107.9 11.7 L -107.9 4.35 L -84.8 4.35 L -84.8 -5.15 L -107.9 -5.15 L -107.9 -12.65 Z M -85.15 -38.8 L -106.1 -35.55 L -106.1 -30.95 L -85.15 -33.45 L -85.15 -38.8 Z M -107.6 -29.25 L -107.6 -36.85 L -83.65 -40.55 L -83.65 -32.1 L -107.6 -29.25 Z M -106.4 -6.65 L -83.3 -6.65 L -83.3 5.85 L -106.4 5.85 L -106.4 10.2 L -77.8 10.2 L -77.65 10.1 L -77.55 10.2 L -77.5 10.35 L -67.7 24.6 L -110.05 24.6 L -125.7 11.5 L -125.7 -12.2 L -110.25 -25.25 L -67.55 -25.25 L -77.85 -11.15 L -106.4 -11.15 L -106.4 -6.65 Z M -77.55 10.2 L -77.5 10.2 Z M -75.7 -6.7 L -65.0 -21.65 L -65.0 21.15 L -75.6 5.95 L -79.35 5.95 L -79.35 -6.7 L -75.7 -6.7 Z M -150.75 -1.85 L -120.35 -29.7 L -156.65 -29.7 L -169.35 -17.5 L -169.35 -29.7 L -195.35 -29.7 L -195.35 28.85 L -169.35 28.85 L -169.35 14.3 L -155.35 28.85 L -120.0 28.85 L -150.75 -1.85 Z M -171.5 -9.45 L -155.25 -25.25 L -131.55 -25.25 L -156.8 -1.85 L -130.2 24.6 L -153.5 24.6 L -171.1 6.65 L -173.55 6.65 L -173.55 24.6 L -190.9 24.6 L -190.9 -25.25 L -173.55 -25.25 L -173.55 -9.45 L -171.5 -9.45 Z M -158.95 -1.9 L -135.4 -23.75 L -154.6 -23.75 L -170.9 -7.95 L -175.05 -7.95 L -175.05 -23.75 L -189.4 -23.75 L -189.4 23.1 L -175.05 23.1 L -175.05 5.15 L -170.45 5.15 L -152.9 23.1 L -133.85 23.1 L -158.95 -1.9 Z M -237.4 -29.65 C -228.06667 -29.65 -220.1 -26.833334 -213.5 -21.2 L -210.3 -17.9 L -209.7 -17.2 L -225.65 -9.2 L -226.0 -9.6 L -226.2 -9.8 C -229.33333 -12.4 -233.08333 -13.7 -237.45 -13.7 C -241.78333 -13.7 -245.5 -12.416667 -248.6 -9.85 C -251.73334 -7.15 -253.3 -3.9999998 -253.3 -0.4 C -253.3 0.9333334 -253.08333 2.2166667 -252.65 3.45 L -252.4 4.1 L -268.25 11.95 L -268.55 11.3 C -270.38333 7.7666664 -271.3 3.8999996 -271.3 -0.3 C -271.3 -8.3 -267.94998 -15.266667 -261.25 -21.2 C -254.61667 -26.833334 -246.66667 -29.65 -237.4 -29.65 Z M -261.25 -21.2 L -261.2 -21.2 Z M -248.6 -9.85 L -248.6 -9.8 Z M -222.6 -4.9 L -206.75 -12.75 L -206.4 -12.05 C -204.59999 -8.416666 -203.7 -4.499999 -203.7 -0.3 C -203.7 7.8 -206.96666 14.666666 -213.5 20.3 C -220.09999 26.033333 -228.06665 28.9 -237.4 28.9 C -246.66667 28.9 -254.61667 26.033333 -261.25 20.3 L -264.65 16.95 L -265.3 16.25 L -249.35 8.35 L -248.95 8.6 L -248.6 8.9 C -245.46666 11.533334 -241.74998 12.85 -237.45 12.85 C -233.08333 12.85 -229.34999 11.533334 -226.25 8.9 C -223.25 6.333333 -221.75 3.233333 -221.75 -0.4 C -221.75 -1.7666667 -221.96666 -3.0666666 -222.4 -4.3 L -222.6 -4.9 Z M -226.25 8.9 L -226.2 8.9 Z M -248.6 8.9 L -248.55 8.95 Z M -261.25 20.3 L -261.2 20.3 Z M -225.35 -11.05 L -212.1 -17.7 L -214.45 -20.05 C -220.81667 -25.45 -228.46666 -28.150002 -237.4 -28.15 C -246.26666 -28.15 -253.88333 -25.466667 -260.25 -20.1 C -266.61667 -14.466666 -269.8 -7.866666 -269.8 -0.3 C -269.8 3.3666668 -269.05 6.783334 -267.55 9.95 L -254.25 3.35 C -254.61667 2.1499999 -254.8 0.89999986 -254.8 -0.4 C -254.8 -4.4666667 -253.06667 -7.9833336 -249.6 -10.95 C -246.23334 -13.783333 -242.18333 -15.2 -237.45 -15.2 C -232.75 -15.2 -228.71667 -13.816667 -225.35 -11.05 Z M -249.6 -10.95 L -249.55 -10.95 Z M -260.25 -20.1 L -260.25 -20.05 Z M -214.45 -20.05 L -214.5 -20.1 Z M -199.6 -0.35 C -199.6 -9.516667 -203.25 -17.483334 -210.55 -24.25 C -218.01666 -30.716667 -227.01666 -33.95 -237.55 -33.95 C -247.98334 -33.95 -256.93335 -30.716667 -264.4 -24.25 C -271.93335 -17.483334 -275.7 -9.516666 -275.7 -0.35 C -275.7 8.916667 -271.93335 16.766666 -264.4 23.2 C -256.93332 29.833336 -247.98332 33.15 -237.55 33.15 C -227.01666 33.15 -218.01666 29.833334 -210.55 23.2 C -203.25 16.766666 -199.6 8.916666 -199.6 -0.35 Z M -247.1 0.25 L -247.15 -0.35 C -247.15 -2.65 -246.2 -4.6833334 -244.3 -6.45 C -242.4 -8.083333 -240.13333 -8.9 -237.5 -8.9 C -235.43333 -8.9 -233.6 -8.4 -232.0 -7.4 L -230.65 -6.45 C -229.01666 -4.9166665 -228.09999 -3.1666665 -227.9 -1.2 L -227.85 -0.35 C -227.85 2.0500002 -228.78334 4.0666666 -230.65 5.7 C -232.55 7.366667 -234.83334 8.2 -237.5 8.2 C -239.66667 8.2 -241.56667 7.65 -243.2 6.55 L -244.25 5.75 C -246.01666 4.2166667 -246.96666 2.3833332 -247.1 0.25 Z M -244.25 5.75 L -244.3 5.75 Z M -230.65 5.7 L -230.65 5.75 Z M -232.0 -7.4 L -231.95 -7.35 Z M -244.3 -6.45 L -244.25 -6.45 Z M -245.65 -0.35 L -245.6 0.05 L -245.6 0.15 C -245.46666 1.8833333 -244.7 3.3666668 -243.3 4.6 L -242.35 5.3 C -240.95 6.233333 -239.33333 6.7 -237.5 6.7 C -235.23334 6.7 -233.28334 6.0 -231.65 4.6 C -230.11667 3.233333 -229.35 1.5833331 -229.35 -0.35 L -229.4 -1.0 C -229.56667 -2.6333334 -230.31667 -4.0833335 -231.65 -5.35 L -232.7 -6.1 C -234.1 -6.9666667 -235.70001 -7.4 -237.5 -7.4 C -239.73334 -7.4 -241.66667 -6.7166667 -243.3 -5.35 C -244.86667 -3.8833332 -245.65 -2.2166665 -245.65 -0.35 Z M -243.3 -5.35 L -243.3 -5.3 Z M -232.7 -6.1 L -232.75 -6.1 Z M -231.65 4.6 L -231.6 4.6 Z M -237.45 14.35 C -242.15 14.35 -246.16666 12.933333 -249.5 10.1 L -262.85 16.7 L -260.25 19.15 C -253.88333 24.65 -246.26666 27.4 -237.4 27.4 C -228.46666 27.4 -220.83333 24.65 -214.5 19.15 C -208.3 13.816666 -205.2 7.3333325 -205.2 -0.3 C -205.2 -4.0333333 -205.95 -7.5166664 -207.45 -10.75 L -220.8 -4.15 C -220.43333 -2.9833333 -220.25 -1.7333333 -220.25 -0.4 C -220.25 3.7000003 -221.91667 7.1833334 -225.25 10.05 C -228.61667 12.916667 -232.68333 14.35 -237.45 14.35 Z M -279.2 -14.3 L -297.4 -29.65 L -346.5 -29.65 L -346.5 28.8 L -320.5 28.8 L -320.5 16.6 L -297.75 16.6 L -279.2 1.45 L -279.2 -14.3 Z M -284.95 -1.35 L -284.95 -11.75 L -299.3 -23.8 L -340.55 -23.8 L -340.55 23.05 L -326.4 23.05 L -326.4 10.85 L -299.55 10.85 L -284.95 -1.35 Z M -342.05 -25.3 L -298.75 -25.3 L -283.45 -12.45 L -283.45 -0.65 L -299.0 12.35 L -324.9 12.35 L -324.9 24.55 L -342.05 24.55 L -342.05 -25.3 Z M -320.2 -7.85 L -305.4 -7.85 L -305.4 -5.0 L -320.2 -5.0 L -320.2 -7.85 Z M -324.85 -0.9 L -300.9 -0.9 L -300.9 -11.85 L -324.85 -11.85 L -324.85 -0.9 Z M -299.4 0.6 L -326.35 0.6 L -326.35 -13.35 L -299.4 -13.35 L -299.4 0.6 Z"
         id="path46"
         stroke-linejoin="round"
         stroke-linecap="round"
         fill="#000000" />
      <path
         d="M 111.55 -29.7 L 146.0 -29.7 L 119.7 -0.35 L 144.55 28.85 L 111.4 28.85 L 102.35 19.0 L 93.5 28.85 L 20.6 28.85 L 3.05 14.45 L -14.35 28.85 L -111.65 28.85 L -130.15 13.85 L -130.15 -14.55 L -111.9 -29.7 L -111.9 -40.45 L -79.6 -45.55 L -79.6 -29.7 L -14.35 -29.7 L 3.1 -15.35 L 20.85 -29.7 L 93.4 -29.7 L 102.6 -19.75 L 111.55 -29.7 Z M 102.55 -13.5 L 92.0 -25.25 L 69.2 -25.25 L 90.55 -0.35 L 68.55 24.6 L 91.55 24.6 L 102.35 12.7 L 113.35 24.6 L 135.45 24.6 L 113.85 -0.45 L 136.3 -25.25 L 113.25 -25.25 L 102.55 -13.5 Z M 65.05 4.35 L 71.15 -4.1 L 74.5 -0.35 L 67.45 7.65 L 65.05 4.35 Z M 53.0 -6.7 L 53.0 6.15 L 56.75 6.15 L 66.65 20.3 L 85.35 -0.55 L 66.65 -20.95 L 56.5 -6.7 L 53.0 -6.7 Z M 54.35 10.2 L 25.75 10.2 L 25.75 5.85 L 48.85 5.85 L 48.85 -6.65 L 25.75 -6.65 L 25.75 -11.15 L 54.3 -11.15 L 64.6 -25.25 L 21.9 -25.25 L 6.45 -12.2 L 6.45 11.5 L 22.1 24.6 L 64.45 24.6 L 54.65 10.35 L 54.65 10.2 L 54.5 10.1 L 54.35 10.2 Z M 54.65 10.2 L 54.6 10.2 Z M -15.6 -25.25 L -60.75 -25.25 L -60.75 24.6 L -15.6 24.6 L -0.4 11.8 L -0.4 -12.5 L -15.6 -25.25 Z M -17.6 10.1 L -43.4 10.1 L -43.4 -10.85 L -17.6 -10.85 L -17.6 10.1 Z M -39.05 5.9 L -21.8 5.9 L -21.8 -6.7 L -39.05 -6.7 L -39.05 5.9 Z M -107.6 -36.85 L -107.6 -29.25 L -83.65 -32.1 L -83.65 -40.55 L -107.6 -36.85 Z M -83.3 -6.65 L -106.4 -6.65 L -106.4 -11.15 L -77.85 -11.15 L -67.55 -25.25 L -110.25 -25.25 L -125.7 -12.2 L -125.7 11.5 L -110.05 24.6 L -67.7 24.6 L -77.5 10.35 L -77.5 10.2 L -77.65 10.1 L -77.8 10.2 L -106.4 10.2 L -106.4 5.85 L -83.3 5.85 L -83.3 -6.65 Z M -77.5 10.2 L -77.55 10.2 Z M -65.0 -21.65 L -75.7 -6.7 L -79.35 -6.7 L -79.35 5.95 L -75.6 5.95 L -65.0 21.15 L -65.0 -21.65 Z M -120.35 -29.7 L -150.75 -1.85 L -120.0 28.85 L -155.35 28.85 L -169.35 14.3 L -169.35 28.85 L -195.35 28.85 L -195.35 -29.7 L -169.35 -29.7 L -169.35 -17.5 L -156.65 -29.7 L -120.35 -29.7 Z M -155.25 -25.25 L -171.5 -9.45 L -173.55 -9.45 L -173.55 -25.25 L -190.9 -25.25 L -190.9 24.6 L -173.55 24.6 L -173.55 6.65 L -171.1 6.65 L -153.5 24.6 L -130.2 24.6 L -156.8 -1.85 L -131.55 -25.25 L -155.25 -25.25 Z M -213.5 -21.2 C -220.09999 -26.833334 -228.06665 -29.65 -237.4 -29.65 C -246.66667 -29.65 -254.6 -26.833334 -261.2 -21.2 C -267.93332 -15.266666 -271.3 -8.299999 -271.3 -0.3 C -271.3 3.9000003 -270.38333 7.7666674 -268.55 11.3 L -268.25 11.95 L -252.4 4.1 L -252.65 3.45 C -253.08333 2.2166667 -253.3 0.9333333 -253.3 -0.4 C -253.3 -4.0 -251.73334 -7.1333337 -248.6 -9.8 C -245.5 -12.4 -241.78333 -13.7 -237.45 -13.7 C -233.08333 -13.7 -229.33333 -12.4 -226.2 -9.8 L -226.0 -9.6 L -225.65 -9.2 L -209.7 -17.2 L -210.3 -17.9 L -213.5 -21.2 Z M -261.2 -21.2 L -261.25 -21.2 Z M -248.6 -9.8 L -248.6 -9.85 Z M -206.75 -12.75 L -222.6 -4.9 L -222.4 -4.3 C -221.96666 -3.0666666 -221.75 -1.7666665 -221.75 -0.4 C -221.75 3.2333336 -223.23334 6.3333335 -226.2 8.9 C -229.33333 11.533334 -233.08333 12.85 -237.45 12.85 C -241.75 12.85 -245.45 11.55 -248.55 8.95 L -248.95 8.6 L -249.35 8.35 L -265.3 16.25 L -264.65 16.95 L -261.2 20.3 C -254.6 26.033333 -246.66667 28.9 -237.4 28.9 C -228.06667 28.9 -220.1 26.033333 -213.5 20.3 C -206.96666 14.666666 -203.7 7.7999997 -203.7 -0.3 C -203.7 -4.5 -204.59999 -8.416667 -206.4 -12.05 L -206.75 -12.75 Z M -226.2 8.9 L -226.25 8.9 Z M -248.55 8.95 L -248.6 8.9 Z M -261.2 20.3 L -261.25 20.3 Z M -210.55 -24.25 C -203.25 -17.483334 -199.6 -9.516666 -199.6 -0.35 C -199.6 8.916667 -203.25 16.766666 -210.55 23.2 C -218.01666 29.833336 -227.01666 33.15 -237.55 33.15 C -247.98334 33.15 -256.93335 29.833334 -264.4 23.2 C -271.93335 16.766666 -275.7 8.916666 -275.7 -0.35 C -275.7 -9.516667 -271.93335 -17.483334 -264.4 -24.25 C -256.93332 -30.716667 -247.98332 -33.95 -237.55 -33.95 C -227.01666 -33.95 -218.01666 -30.716667 -210.55 -24.25 Z M -247.15 -0.35 L -247.1 0.25 C -246.96666 2.3833334 -246.03333 4.2166667 -244.3 5.75 L -243.2 6.55 C -241.56667 7.65 -239.66667 8.2 -237.5 8.2 C -234.83333 8.2 -232.54999 7.383333 -230.65 5.75 C -228.78334 4.083333 -227.85 2.0499997 -227.85 -0.35 L -227.9 -1.2 C -228.09999 -3.1666667 -229.01666 -4.916667 -230.65 -6.45 L -231.95 -7.35 C -233.58333 -8.383333 -235.43333 -8.9 -237.5 -8.9 C -240.13333 -8.9 -242.38333 -8.083333 -244.25 -6.45 C -246.18333 -4.6833334 -247.15 -2.65 -247.15 -0.35 Z M -244.3 5.75 L -244.25 5.75 Z M -230.65 5.75 L -230.65 5.7 Z M -231.95 -7.35 L -232.0 -7.4 Z M -244.25 -6.45 L -244.3 -6.45 Z M -297.4 -29.65 L -279.2 -14.3 L -279.2 1.45 L -297.75 16.6 L -320.5 16.6 L -320.5 28.8 L -346.5 28.8 L -346.5 -29.65 L -297.4 -29.65 Z M -298.75 -25.3 L -342.05 -25.3 L -342.05 24.55 L -324.9 24.55 L -324.9 12.35 L -299.0 12.35 L -283.45 -0.65 L -283.45 -12.45 L -298.75 -25.3 Z M -305.4 -7.85 L -320.2 -7.85 L -320.2 -5.0 L -305.4 -5.0 L -305.4 -7.85 Z M -300.9 -0.9 L -324.85 -0.9 L -324.85 -11.85 L -300.9 -11.85 L -300.9 -0.9 Z"
         id="path48"
         stroke-linejoin="round"
         stroke-linecap="round"
         fill="#FFFFFF" />
      <path
         d="M 53.55 -12.65 L 24.25 -12.65 L 24.25 -5.15 L 47.35 -5.15 L 47.35 4.35 L 24.25 4.35 L 24.25 11.7 L 53.75 11.7 L 61.6 23.1 L 22.65 23.1 L 7.95 10.8 L 7.95 -11.5 L 22.45 -23.75 L 61.65 -23.75 L 53.55 -12.65 Z M 90.9 23.1 L 71.9 23.1 L 92.55 -0.35 L 72.45 -23.75 L 91.35 -23.75 L 102.55 -11.25 L 113.9 -23.75 L 132.95 -23.75 L 111.85 -0.45 L 132.15 23.1 L 114.0 23.1 L 102.35 10.5 L 90.9 23.1 Z M -1.9 -11.8 L -1.9 11.1 L -16.15 23.1 L -59.25 23.1 L -59.25 -23.75 L -16.15 -23.75 L -1.9 -11.8 Z M -16.1 -12.35 L -44.9 -12.35 L -44.9 11.6 L -16.1 11.6 L -16.1 -12.35 Z M -78.6 -12.65 L -107.9 -12.65 L -107.9 -5.15 L -84.8 -5.15 L -84.8 4.35 L -107.9 4.35 L -107.9 11.7 L -78.4 11.7 L -70.55 23.1 L -109.5 23.1 L -124.2 10.8 L -124.2 -11.5 L -109.7 -23.75 L -70.5 -23.75 L -78.6 -12.65 Z M -106.1 -35.55 L -85.15 -38.8 L -85.15 -33.45 L -106.1 -30.95 L -106.1 -35.55 Z M -135.4 -23.75 L -158.95 -1.9 L -133.85 23.1 L -152.9 23.1 L -170.45 5.15 L -175.05 5.15 L -175.05 23.1 L -189.4 23.1 L -189.4 -23.75 L -175.05 -23.75 L -175.05 -7.95 L -170.9 -7.95 L -154.6 -23.75 L -135.4 -23.75 Z M -245.6 0.05 L -245.65 -0.35 C -245.65 -2.2166667 -244.86667 -3.8666668 -243.3 -5.3 C -241.66667 -6.7000003 -239.73334 -7.4 -237.5 -7.4 C -235.7 -7.4 -234.11667 -6.9666667 -232.75 -6.1 L -231.65 -5.35 C -230.31667 -4.083333 -229.56667 -2.633333 -229.4 -1.0 L -229.35 -0.35 C -229.35 1.5833333 -230.1 3.233333 -231.6 4.6 C -233.26668 6.0 -235.23334 6.7 -237.5 6.7 C -239.33333 6.7 -240.95 6.233333 -242.35 5.3 L -243.3 4.6 C -244.7 3.3666666 -245.46666 1.8833332 -245.6 0.15 L -245.6 0.05 Z M -243.3 -5.3 L -243.3 -5.35 Z M -232.75 -6.1 L -232.7 -6.1 Z M -231.6 4.6 L -231.65 4.6 Z M -249.5 10.1 C -246.16667 12.933334 -242.15001 14.350001 -237.45 14.35 C -232.68333 14.35 -228.61667 12.916667 -225.25 10.05 C -221.91667 7.1833334 -220.25 3.7 -220.25 -0.4 C -220.25 -1.7333333 -220.43333 -2.9833333 -220.8 -4.15 L -207.45 -10.75 C -205.95 -7.5166664 -205.2 -4.033333 -205.2 -0.3 C -205.2 7.333333 -208.3 13.816666 -214.5 19.15 C -220.83333 24.65 -228.46666 27.4 -237.4 27.4 C -246.26666 27.4 -253.88333 24.65 -260.25 19.15 L -262.85 16.7 L -249.5 10.1 Z M -284.95 -11.75 L -284.95 -1.35 L -299.55 10.85 L -326.4 10.85 L -326.4 23.05 L -340.55 23.05 L -340.55 -23.8 L -299.3 -23.8 L -284.95 -11.75 Z M -326.35 0.6 L -299.4 0.6 L -299.4 -13.35 L -326.35 -13.35 L -326.35 0.6 Z"
         id="path50"
         stroke-linejoin="round"
         stroke-linecap="round"
         fill="url(#Grad3)" />
      <path
         d="M -212.1 -17.7 L -225.35 -11.05 C -228.71666 -13.816667 -232.74998 -15.2 -237.45 -15.2 C -242.18333 -15.2 -246.21667 -13.783333 -249.55 -10.95 C -253.05 -7.983333 -254.8 -4.466666 -254.8 -0.4 C -254.8 0.9 -254.61667 2.15 -254.25 3.35 L -267.55 9.95 C -269.05 6.783333 -269.8 3.366666 -269.8 -0.3 C -269.8 -7.866667 -266.61667 -14.450001 -260.25 -20.05 C -253.88333 -25.45 -246.26666 -28.150002 -237.4 -28.15 C -228.46666 -28.15 -220.83333 -25.466667 -214.5 -20.1 L -212.1 -17.7 Z M -249.55 -10.95 L -249.6 -10.95 Z M -260.25 -20.05 L -260.25 -20.1 Z M -214.5 -20.1 L -214.45 -20.05 Z"
         id="path52"
         stroke-linejoin="round"
         stroke-linecap="round"
         fill="url(#Grad4)" />
    </g>
  </g>
</svg>
